<svg data-v-1084b650="" xmlns="http://www.w3.org/2000/svg" viewBox="0 0 300 300"><!----> <!----> <rect data-v-1084b650="" fill="#ffffff" x="0" y="0" width="300px" height="300px" class="logo-background-square"></rect> <!----> <linearGradient data-v-1084b650="" gradientTransform="rotate(25)" id="10f654dd-3577-ab9a-5b1d-3c2d8278c1a1" x1="0%" y1="0%" x2="100%" y2="0%"><stop data-v-1084b650="" offset="0%" style="stop-color: rgb(0, 21, 214); stop-opacity: 1;"></stop> <stop data-v-1084b650="" offset="100%" style="stop-color: rgb(9, 137, 251); stop-opacity: 1;"></stop></linearGradient> <g data-v-1084b650="" id="cdfd8529-2cda-6f5f-a29f-e5c20ca3774a" fill="url(#10f654dd-3577-ab9a-5b1d-3c2d8278c1a1)" stroke="none" transform="matrix(1,0,0,1,-0.78839111328125,0.00125885009765625)"><svg xmlns:x="http://ns.adobe.com/Extensibility/1.0/" xmlns:i="http://ns.adobe.com/AdobeIllustrator/10.0/" xmlns:graph="http://ns.adobe.com/Graphs/1.0/" xmlns="http://www.w3.org/2000/svg" xmlns:xlink="http://www.w3.org/1999/xlink" xmlns:a="http://ns.adobe.com/AdobeSVGViewerExtensions/3.0/" version="1.1" x="0px" y="0px" viewBox="0 0 841.89 595.28" enable-background="new 0 0 841.89 595.28" xml:space="preserve"><path d="M347.038,103.433L253.817-0.007l51.591,128.792C317.419,117.852,331.931,109.181,347.038,103.433z"></path><path d="M296.981,170.766c-2.573,6.456-3.433,13.546-2.553,21.146c4.385-4.63,9.802-9.359,16.436-14.135  c16.82-12.111,41.16-13.156,66.936-14.254c19.962-0.853,42.582-1.826,51.611-8.929c0,0,0.026-0.78,55.381-43.806  c-9.372-0.086-18.718,0.271-27.813,0c-9.048-0.271-58.331-1.257-87.017,4.703C337.268,122.284,307.253,145.017,296.981,170.766z"></path><path d="M667.45,365.509c-19.638-51.869-49.296-117.092-89.629-169.694l-0.007,38.931l35.022,81.52  c16.483,34.969,33.488,71.07,47.444,108.969C672.768,411.643,677.173,391.198,667.45,365.509z"></path><path d="M631.449,442.73c-13.896-38.911-31.629-76.513-48.773-112.878l-37.933-88.3v-133.21c0.02-5.02-3.347-7.527-4.789-8.374  c-1.389-0.82-4.994-2.401-9.154-0.311l-72.664,55.923c-5.933,4.279-11.773,8.691-17.534,13.222  c-26.411,20.802-93.518,5.186-119.168,23.659c-14.505,10.444-31.808,26.768-22.713,46.366c-4.451-5.543-9.128-11.912-13.01-18.546  c-13.93,21.886-17.865,40.446-20.484,51.359c-63.258,4.782-96.085,50.619-96.085,96.693c0,52.398,41.458,91.918,96.442,91.918  h131.028l24.254,58.833c16.602,46.452,57.22,76.189,103.645,76.196h0.007c12.699,0,25.432-2.249,37.847-6.687  C621.62,567.428,652.615,501.986,631.449,442.73z M356,293.87c-9.994,0-18.096-8.102-18.096-18.097  c0-9.994,8.102-18.096,18.096-18.096c9.994,0,18.097,8.102,18.097,18.096C374.096,285.768,365.994,293.87,356,293.87z"></path></svg></g></svg>